<svg width="15" height="26" viewBox="0 0 15 26" fill="none" xmlns="http://www.w3.org/2000/svg">
<path d="M9.84257 12.876L0.749239 21.9693C0.395959 22.3485 0.203631 22.8499 0.212773 23.368C0.221915 23.8862 0.431813 24.3805 0.798248 24.747C1.16468 25.1134 1.65904 25.3233 2.17718 25.3325C2.69532 25.3416 3.19677 25.1493 3.57591 24.796L12.9092 15.4627L13.4426 14.9293L14.0826 14.2893C14.4571 13.9143 14.6675 13.406 14.6675 12.876C14.6675 12.346 14.4571 11.8377 14.0826 11.4627L3.5759 0.955986C3.19677 0.602706 2.69531 0.410378 2.17718 0.41952C1.65904 0.428662 1.16468 0.63856 0.798246 1.00499C0.431811 1.37143 0.221913 1.86579 0.212771 2.38393C0.203629 2.90206 0.395957 3.40352 0.749237 3.78265L9.84257 12.876Z" fill="currentColor"/>
</svg>
