<svg width="15" height="26" viewBox="0 0 15 26" fill="none" xmlns="http://www.w3.org/2000/svg">
<path d="M5.15743 12.7895L14.2508 3.69621C14.604 3.31707 14.7964 2.81562 14.7872 2.29748C14.7781 1.77935 14.5682 1.28499 14.2018 0.91855C13.8353 0.552116 13.341 0.342217 12.8228 0.333075C12.3047 0.323933 11.8032 0.516262 11.4241 0.869542L2.09076 10.2029L1.55743 10.7362L0.917426 11.3762C0.542892 11.7512 0.33252 12.2595 0.33252 12.7895C0.33252 13.3195 0.542892 13.8279 0.917426 14.2029L11.4241 24.7095C11.8032 25.0628 12.3047 25.2552 12.8228 25.246C13.341 25.2369 13.8353 25.027 14.2018 24.6605C14.5682 24.2941 14.7781 23.7997 14.7872 23.2816C14.7964 22.7635 14.604 22.262 14.2508 21.8829L5.15743 12.7895Z" fill="currentColor"/>
</svg>
