<svg width="61" height="62" viewBox="0 0 61 62" fill="none" xmlns="http://www.w3.org/2000/svg">
<path d="M30.5 8.48218C26.5164 8.48218 23.2757 11.7229 23.2757 15.7065C23.2757 19.6901 26.5165 22.931 30.5 22.931C34.4835 22.931 37.7244 19.6901 37.7244 15.7065C37.7244 11.7229 34.4835 8.48218 30.5 8.48218ZM30.5 21.2629C27.4362 21.2629 24.9436 18.7702 24.9436 15.7064C24.9436 12.6426 27.4362 10.1501 30.5 10.1501C33.5638 10.1501 36.0565 12.6427 36.0565 15.7065C36.0565 18.7703 33.5638 21.2629 30.5 21.2629ZM54.7493 28.1046V15.7065C54.7493 15.2459 54.3759 14.8725 53.9153 14.8725H44.6341V14.3765C44.6341 13.435 43.8681 12.6689 42.9265 12.6689C41.8891 12.6689 41.2406 11.9958 40.9797 11.3657C40.7188 10.7356 40.7013 9.80107 41.435 9.0674C42.1005 8.40176 42.1006 7.31842 41.435 6.6523L39.554 4.77143C38.8881 4.10567 37.8047 4.10567 37.1389 4.77143C36.4052 5.50498 35.4707 5.4877 34.8407 5.22666C34.2106 4.96563 33.5375 4.31714 33.5375 3.27979C33.5375 2.33822 32.7714 1.57214 31.8298 1.57214H29.1699C28.2283 1.57214 27.4623 2.33822 27.4623 3.27979C27.4623 4.31726 26.7891 4.96563 26.1591 5.22666C25.5292 5.4877 24.5946 5.50521 23.8609 4.77143C23.1951 4.10567 22.1117 4.10567 21.4458 4.77143L19.5647 6.65254C18.8992 7.31841 18.8993 8.40176 19.5648 9.06752C20.2983 9.80107 20.281 10.7357 20.0199 11.3657C19.759 11.9956 19.1105 12.6689 18.0732 12.6689C17.1316 12.6689 16.3655 13.435 16.3655 14.3765V14.8725H6.59038C6.12979 14.8725 5.7564 15.2459 5.7564 15.7065V23.0173H1.90625C1.44565 23.0173 1.07227 23.3907 1.07227 23.8513V33.2197C1.07227 33.6803 1.44565 34.0537 1.90625 34.0537H11.2746C11.7352 34.0537 12.1086 33.6803 12.1086 33.2197V23.8513C12.1086 23.3907 11.7352 23.0173 11.2746 23.0173H7.42437V16.5405H16.3658V17.0364C16.3658 17.9779 17.1318 18.744 18.0734 18.744C19.1109 18.744 19.7592 19.4171 20.0202 20.0472C20.2811 20.6771 20.2986 21.6117 19.5648 22.3454C18.8993 23.0113 18.8994 24.0946 19.5649 24.7602L21.4459 26.6414C22.1118 27.3071 23.1952 27.3072 23.861 26.6412C24.596 25.9064 25.5305 25.9233 26.1599 26.184C26.7896 26.4447 27.4623 27.0937 27.4623 28.1329C27.4623 29.0744 28.2283 29.8405 29.1699 29.8405H29.6565L29.5967 35.1812L17.8442 40.5023C17.5458 40.6374 17.3541 40.9345 17.3541 41.2621V48.4621C14.4325 48.8694 12.1758 51.3831 12.1758 54.4152C12.1758 57.7304 14.8729 60.4275 18.1881 60.4275C21.5033 60.4275 24.2006 57.7304 24.2006 54.4152C24.2006 51.3831 21.9439 48.8694 19.0221 48.4621V41.8001L30.4344 36.633L36.5514 39.2467V41.3797H32.7011C32.2405 41.3797 31.8671 41.753 31.8671 42.2136V51.582C31.8671 52.0426 32.2405 52.416 32.7011 52.416H42.0695C42.5301 52.416 42.9035 52.0426 42.9035 51.582V42.2136C42.9035 41.753 42.5301 41.3797 42.0695 41.3797H38.2194V38.6961C38.2194 38.3622 38.0202 38.0604 37.713 37.9292L31.2646 35.1741L31.3245 29.8406H31.8297C32.7713 29.8406 33.5374 29.0746 33.5374 28.133C33.5374 27.0956 34.2105 26.4472 34.8405 26.1862C35.4704 25.9251 36.4051 25.9077 37.1388 26.6414C37.8046 27.3071 38.888 27.3072 39.5539 26.6412L41.4348 24.7602C42.1004 24.0946 42.1005 23.0113 41.4348 22.3451C40.7013 21.6117 40.7187 20.6772 40.9797 20.0472C41.2408 19.4171 41.8891 18.744 42.9265 18.744C43.8681 18.744 44.6341 17.9779 44.6341 17.0364V16.5405H53.0813V28.1046C50.1596 28.512 47.9029 31.0256 47.9029 34.0577C47.9029 37.373 50.6001 40.0701 53.9153 40.0701C57.2305 40.0701 59.9277 37.3731 59.9277 34.0579C59.9277 31.0256 57.6711 28.5121 54.7493 28.1046ZM10.4407 32.3857H2.74023V24.6853H10.4407V32.3857ZM22.5326 54.4154C22.5326 56.8109 20.5837 58.7598 18.1881 58.7598C15.7927 58.7598 13.8438 56.811 13.8438 54.4154C13.8438 52.0199 15.7927 50.0711 18.1881 50.0711C20.5838 50.0711 22.5326 52.0199 22.5326 54.4154ZM41.2356 50.7479H33.5352V43.0475H41.2356V50.7479ZM42.9662 17.0364C42.9662 17.0583 42.9484 17.076 42.9265 17.076C41.3711 17.076 40.0347 17.9699 39.4386 19.4089C38.8427 20.8479 39.1557 22.425 40.2552 23.5245C40.2708 23.5401 40.2708 23.5655 40.2554 23.581L38.3744 25.4619C38.3589 25.4775 38.3336 25.4775 38.3181 25.4619C37.2183 24.3622 35.6412 24.0492 34.2022 24.6453C32.7633 25.2413 31.8694 26.5777 31.8694 28.133C31.8694 28.1549 31.8517 28.1727 31.8297 28.1727H29.1698C29.1479 28.1727 29.1301 28.1549 29.1301 28.133C29.1301 26.5762 28.2366 25.2388 26.7981 24.643C26.3161 24.4433 25.8186 24.3459 25.3286 24.3459C24.3562 24.3459 23.4134 24.73 22.6815 25.4619C22.666 25.4775 22.6408 25.4774 22.6253 25.462L20.7444 23.581C20.7289 23.5655 20.7289 23.5401 20.7444 23.5248C21.8442 22.425 22.1572 20.8479 21.5611 19.4089C20.9651 17.9699 19.6287 17.076 18.0733 17.076C18.0514 17.076 18.0336 17.0583 18.0336 17.0364V14.3765C18.0336 14.3546 18.0514 14.3369 18.0733 14.3369C19.6287 14.3369 20.9651 13.443 21.561 12.0041C22.1571 10.5651 21.8441 8.98793 20.7444 7.88815C20.7289 7.87266 20.7289 7.84728 20.7444 7.83191L22.6254 5.95104C22.6409 5.93543 22.6661 5.93543 22.6816 5.95104C23.7814 7.05071 25.3587 7.36381 26.7976 6.76763C28.2364 6.17169 29.1304 4.83517 29.1304 3.27991C29.1304 3.25798 29.1481 3.24023 29.17 3.24023H31.83C31.8519 3.24023 31.8696 3.25798 31.8696 3.27991C31.8696 4.83529 32.7634 6.17169 34.2024 6.76763C35.6414 7.36381 37.2185 7.05059 38.3184 5.95104C38.3339 5.93543 38.3591 5.93543 38.3746 5.95104L40.2554 7.83167C40.271 7.84728 40.271 7.87266 40.2555 7.88803C39.1557 8.98781 38.8427 10.5651 39.4388 12.0041C40.0347 13.443 41.3712 14.3369 42.9265 14.3369C42.9484 14.3369 42.9662 14.3546 42.9662 14.3765V17.0364ZM53.9153 38.4021C51.5197 38.4021 49.5708 36.4533 49.5708 34.0577C49.5708 31.6622 51.5197 29.7134 53.9153 29.7134C56.3109 29.7134 58.2598 31.6623 58.2598 34.0579C58.2598 36.4534 56.3109 38.4021 53.9153 38.4021Z" fill="#FCFCFD"/>
</svg>
