<svg width="61" height="62" viewBox="0 0 61 62" fill="none" xmlns="http://www.w3.org/2000/svg">
<path d="M35.5931 41.4458C34.4487 40.9553 33.0045 40.6489 31.4531 40.5594V28.1406H29.5469V40.5594C27.9955 40.6489 26.5513 40.9553 25.4069 41.4458C23.2039 42.3899 22.875 43.6667 22.875 44.3438V55.7812C22.875 56.4583 23.2039 57.7351 25.4069 58.6792C26.7829 59.269 28.5918 59.5938 30.5 59.5938C32.4082 59.5938 34.2171 59.269 35.5931 58.6792C37.7961 57.7351 38.125 56.4583 38.125 55.7812V44.3438C38.125 43.6667 37.7961 42.3899 35.5931 41.4458ZM36.2188 55.7812C36.2188 56.4533 34.0476 57.6875 30.5 57.6875C26.9524 57.6875 24.7812 56.4533 24.7812 55.7812V52.6568C24.9711 52.7609 25.1784 52.8625 25.4069 52.9604C26.7829 53.5502 28.5918 53.875 30.5 53.875C32.4082 53.875 34.2171 53.5502 35.5931 52.9604C35.8216 52.8625 36.0289 52.7609 36.2188 52.6568V55.7812ZM36.2188 50.0625C36.2188 50.7345 34.0476 51.9688 30.5 51.9688C26.9524 51.9688 24.7812 50.7345 24.7812 50.0625V46.9381C24.9711 47.0421 25.1784 47.1438 25.4069 47.2417C26.7829 47.8315 28.5918 48.1562 30.5 48.1562C32.4082 48.1562 34.2171 47.8315 35.5931 47.2417C35.8216 47.1438 36.0289 47.0421 36.2188 46.9381V50.0625ZM30.5 46.25C26.9524 46.25 24.7812 45.0158 24.7812 44.3438C24.7812 43.6717 26.9524 42.4375 30.5 42.4375C34.0476 42.4375 36.2188 43.6717 36.2188 44.3438C36.2188 45.0158 34.0476 46.25 30.5 46.25Z" fill="#FCFCFD"/>
<path d="M56.5619 41.4458C55.1858 40.856 53.377 40.5312 51.4688 40.5312C49.5605 40.5312 47.7517 40.856 46.3756 41.4458C45.4749 41.8318 44.8878 42.2734 44.508 42.7069L36.2188 34.4177V28.1406H34.3125V35.2073L43.8438 44.7386V55.7812C43.8438 56.4583 44.1727 57.7351 46.3756 58.6792C47.7517 59.269 49.5605 59.5938 51.4688 59.5938C53.377 59.5938 55.1858 59.269 56.5619 58.6792C58.7648 57.7351 59.0938 56.4583 59.0938 55.7812V44.3438C59.0938 43.6667 58.7648 42.3899 56.5619 41.4458ZM57.1875 55.7812C57.1875 56.4533 55.0163 57.6875 51.4688 57.6875C47.9212 57.6875 45.75 56.4533 45.75 55.7812V52.6568C45.9399 52.7609 46.1471 52.8625 46.3756 52.9604C47.7517 53.5502 49.5605 53.875 51.4688 53.875C53.377 53.875 55.1858 53.5502 56.5619 52.9604C56.7904 52.8625 56.9976 52.7609 57.1875 52.6568V55.7812ZM57.1875 50.0625C57.1875 50.7345 55.0163 51.9688 51.4688 51.9688C47.9212 51.9688 45.75 50.7345 45.75 50.0625V46.9381C45.9399 47.0421 46.1471 47.1438 46.3756 47.2417C47.7517 47.8315 49.5605 48.1562 51.4688 48.1562C53.377 48.1562 55.1858 47.8315 56.5619 47.2417C56.7904 47.1438 56.9976 47.0421 57.1875 46.9381V50.0625ZM51.4688 46.25C47.9212 46.25 45.75 45.0158 45.75 44.3438C45.75 43.6717 47.9212 42.4375 51.4688 42.4375C55.0163 42.4375 57.1875 43.6717 57.1875 44.3438C57.1875 45.0158 55.0163 46.25 51.4688 46.25Z" fill="#FCFCFD"/>
<path d="M26.6875 28.1406H24.7812V34.4177L16.492 42.7069C16.1122 42.2734 15.5251 41.8318 14.6244 41.4458C13.2483 40.856 11.4395 40.5312 9.53125 40.5312C7.62302 40.5312 5.81416 40.856 4.43811 41.4458C2.23517 42.3899 1.90625 43.6667 1.90625 44.3438V55.7812C1.90625 56.4583 2.23517 57.7351 4.43811 58.6792C5.81416 59.269 7.62302 59.5938 9.53125 59.5938C11.4395 59.5938 13.2483 59.269 14.6244 58.6792C16.8273 57.7351 17.1562 56.4583 17.1562 55.7812V44.7386L26.6875 35.2073V28.1406ZM15.25 55.7812C15.25 56.4533 13.0788 57.6875 9.53125 57.6875C5.98368 57.6875 3.8125 56.4533 3.8125 55.7812V52.6568C4.00238 52.7609 4.20963 52.8625 4.43811 52.9604C5.81416 53.5502 7.62302 53.875 9.53125 53.875C11.4395 53.875 13.2483 53.5502 14.6244 52.9604C14.8529 52.8625 15.0601 52.7609 15.25 52.6568V55.7812ZM15.25 50.0625C15.25 50.7345 13.0788 51.9688 9.53125 51.9688C5.98368 51.9688 3.8125 50.7345 3.8125 50.0625V46.9381C4.00238 47.0421 4.20963 47.1438 4.43811 47.2417C5.81416 47.8315 7.62302 48.1562 9.53125 48.1562C11.4395 48.1562 13.2483 47.8315 14.6244 47.2417C14.8529 47.1438 15.0601 47.0421 15.25 46.9381V50.0625ZM9.53125 46.25C5.98368 46.25 3.8125 45.0158 3.8125 44.3438C3.8125 43.6717 5.98368 42.4375 9.53125 42.4375C13.0788 42.4375 15.25 43.6717 15.25 44.3438C15.25 45.0158 13.0788 46.25 9.53125 46.25Z" fill="#FCFCFD"/>
<path d="M16.2031 34.8125H20.9688V32.9062H16.2031C13.9281 32.9062 11.7462 32.0025 10.1375 30.3938C8.52876 28.7851 7.625 26.6032 7.625 24.3281C7.625 22.0531 8.52876 19.8712 10.1375 18.2625C11.7462 16.6538 13.9281 15.75 16.2031 15.75C16.2139 15.75 16.2248 15.7508 16.2356 15.7508C16.2148 16.0657 16.2031 16.3831 16.2031 16.7031C16.1972 19.6253 17.0922 22.4783 18.7663 24.8734L20.3298 23.7829C19.2832 22.2783 18.5834 20.5604 18.2808 18.7527C17.9782 16.9451 18.0803 15.0929 18.5798 13.3295C19.0793 11.5661 19.9638 9.93545 21.1695 8.55507C22.3751 7.1747 23.872 6.07896 25.5522 5.3468C27.2324 4.61464 29.054 4.2643 30.8859 4.32103C32.7178 4.37775 34.5143 4.84013 36.146 5.67484C37.7777 6.50954 39.2039 7.6958 40.3218 9.14813C41.4398 10.6005 42.2216 12.2827 42.6111 14.0736C40.2643 14.5772 38.1608 15.8695 36.6508 17.7353C35.1409 19.6011 34.3157 21.9279 34.3125 24.3281H36.2188C36.2188 22.6315 36.7218 20.973 37.6644 19.5624C38.607 18.1517 39.9467 17.0522 41.5142 16.403C43.0816 15.7537 44.8064 15.5838 46.4704 15.9148C48.1344 16.2458 49.6629 17.0628 50.8625 18.2625C52.0622 19.4621 52.8792 20.9906 53.2102 22.6546C53.5412 24.3186 53.3713 26.0434 52.722 27.6108C52.0728 29.1783 50.9733 30.518 49.5626 31.4606C48.152 32.4032 46.4935 32.9062 44.7969 32.9062H39.0781V34.8125H44.7969C47.5775 34.8125 50.2442 33.7079 52.2104 31.7417C54.1767 29.7755 55.2812 27.1088 55.2812 24.3281C55.2812 21.5475 54.1767 18.8808 52.2104 16.9146C50.2442 14.9484 47.5775 13.8438 44.7969 13.8438C44.7012 13.8438 44.6058 13.8451 44.5107 13.8478C43.852 10.6178 42.0974 7.71454 39.544 5.62956C36.9906 3.54457 33.7952 2.40589 30.4987 2.40625C27.2022 2.40661 24.007 3.546 21.4541 5.63155C18.9012 7.71711 17.1472 10.6207 16.4892 13.8509C16.3938 13.8483 16.2985 13.8438 16.2031 13.8438C13.4225 13.8438 10.7558 14.9484 8.78955 16.9146C6.82335 18.8808 5.71875 21.5475 5.71875 24.3281C5.71875 27.1088 6.82335 29.7755 8.78955 31.7417C10.7558 33.7079 13.4225 34.8125 16.2031 34.8125Z" fill="#FCFCFD"/>
</svg>
