<svg width="32" height="48" viewBox="0 0 32 48" fill="none" xmlns="http://www.w3.org/2000/svg">
<path d="M15.9166 30.2145C23.9248 30.2145 30.4166 23.7227 30.4166 15.7145C30.4166 7.70641 23.9248 1.21454 15.9166 1.21454C7.9085 1.21454 1.41663 7.70641 1.41663 15.7145C1.41663 23.7227 7.9085 30.2145 15.9166 30.2145Z" stroke="#34CB9E" stroke-width="1.5" stroke-linecap="round" stroke-linejoin="round"/>
<path d="M8.06612 27.9148L5.55969 46.7855L15.9168 40.5712L26.274 46.7855L23.7675 27.894" stroke="#34CB9E" stroke-width="1.5" stroke-linecap="round" stroke-linejoin="round"/>
<path d="M15.9168 8.91138L17.9582 12.3933L18.124 12.6762L18.4444 12.7465L22.3867 13.612L19.706 16.6294L19.4882 16.8746L19.5203 17.201L19.9154 21.2178L16.2173 19.6007L15.9168 19.4693L15.6163 19.6007L11.9182 21.2178L12.3134 17.201L12.3455 16.8746L12.1276 16.6294L9.44697 13.612L13.3893 12.7465L13.7096 12.6762L13.8755 12.3933L15.9168 8.91138Z" stroke="#34CB9E" stroke-width="1.5"/>
</svg>
