<svg width="61" height="62" viewBox="0 0 61 62" fill="none" xmlns="http://www.w3.org/2000/svg">
<path d="M12.3888 2.40503C10.8212 2.40503 9.53125 3.69498 9.53125 5.26258V35.7626C9.53125 37.0347 11.4394 37.0347 11.4394 35.7626V11.9401H49.5588V35.7626C49.5299 37.0623 51.4942 37.0623 51.465 35.7626V5.26258C51.465 3.69498 50.177 2.40503 48.6094 2.40503H12.3888ZM12.3888 4.31318H48.6094C49.1539 4.31318 49.5588 4.71805 49.5588 5.26258V10.0319H11.4394V5.26258C11.4394 4.71805 11.8443 4.31318 12.3888 4.31318ZM14.2969 6.21759C13.7705 6.21759 13.3438 6.64435 13.3438 7.17073C13.3438 7.69714 13.7705 8.12376 14.2969 8.12376C14.8232 8.12376 15.25 7.69714 15.25 7.17073C15.25 6.64435 14.8232 6.21759 14.2969 6.21759ZM18.1094 6.21759C17.583 6.21759 17.1562 6.64435 17.1562 7.17073C17.1562 7.69714 17.583 8.12376 18.1094 8.12376C18.6358 8.12376 19.0625 7.69714 19.0625 7.17073C19.0625 6.64435 18.6358 6.21759 18.1094 6.21759ZM21.9219 6.21759C21.3955 6.21759 20.9688 6.64435 20.9688 7.17073C20.9688 7.69714 21.3955 8.12376 21.9219 8.12376C22.4483 8.12376 22.875 7.69714 22.875 7.17073C22.875 6.64435 22.4483 6.21759 21.9219 6.21759ZM35.2172 6.21946C33.9304 6.30699 34.0182 8.15726 35.2619 8.12574H46.7031C47.9461 8.09692 47.9461 6.24701 46.7031 6.21946H35.2172ZM4.76935 8.12574C3.20175 8.12574 1.90625 9.41381 1.90625 10.9814V45.2957C1.90625 46.8633 3.20175 48.1532 4.76935 48.1532H56.2362C57.8038 48.1532 59.0937 46.8633 59.0937 45.2957V10.9813C59.0937 9.4137 57.8038 8.12563 56.2362 8.12563H54.33C53.0307 8.09681 53.0307 10.0607 54.33 10.0319H56.2362C56.7808 10.0319 57.1856 10.4368 57.1856 10.9813V38.6257H3.8125V10.9813C3.8125 10.4368 4.22485 10.0319 4.76935 10.0319H6.66815C7.96749 10.0607 7.96749 8.09681 6.66815 8.12563L4.76935 8.12574ZM33.3705 15.7339C32.9515 15.7311 32.5799 16.0024 32.4546 16.4023L26.734 33.5566C26.3307 34.763 28.1401 35.3679 28.5435 34.1616L34.2641 17.0017C34.4798 16.3845 34.0243 15.7382 33.3705 15.7339ZM37.5144 21.2442L42.3545 25.2819L37.5144 29.3141C36.4802 30.1238 37.7572 31.6515 38.7375 30.7774L44.4506 26.0135C44.9068 25.6325 44.9068 24.9315 44.4506 24.5504L38.7375 19.7792C38.5667 19.633 38.3498 19.5518 38.0766 19.5522C37.1756 19.6311 36.849 20.7057 37.5144 21.2442ZM22.8508 19.554C22.6361 19.5612 22.4302 19.6404 22.2663 19.7791L16.5475 24.5503C16.0913 24.9314 16.0913 25.6324 16.5475 26.0134L22.2663 30.7773C23.2498 31.6933 24.5633 30.1146 23.4837 29.314L18.6437 25.2818L23.4837 21.2441C24.188 20.6675 23.7606 19.5262 22.8508 19.554ZM3.8125 40.5338H57.1856V45.2957C57.1856 45.8402 56.7808 46.2451 56.2362 46.2451H4.76935C4.22485 46.2451 3.8125 45.8402 3.8125 45.2957V40.5338ZM32.4584 42.4382L28.5472 42.4401C27.3323 42.5853 27.4139 44.3064 28.5919 44.3389H32.4062C33.7152 44.4545 33.8242 42.4645 32.4584 42.4382ZM25.1536 49.9849C24.771 49.9777 24.4206 50.1982 24.2637 50.5472C23.8048 51.5316 22.9825 52.6812 21.5626 53.8719H20.0156C18.448 53.8719 17.16 55.1693 17.16 56.737V58.6358C17.1581 59.1621 17.583 59.5904 18.1094 59.5925H42.8888C43.4181 59.5944 43.8476 59.1651 43.8456 58.6358V56.737C43.8456 55.1693 42.5501 53.8719 40.9825 53.8719H39.4374C38.0177 52.6812 37.1952 51.5315 36.7363 50.5472C36.5749 50.1891 36.2106 49.9667 35.8185 49.9868C35.1376 50.0228 34.7123 50.7393 35.0087 51.3533C35.3803 52.1502 35.9476 53.005 36.7121 53.8719H24.2879C25.0523 53.005 25.6197 52.1502 25.9913 51.3533C26.2939 50.7282 25.8479 49.9997 25.1536 49.9849ZM20.0156 55.7801H40.9825C41.527 55.7801 41.9394 56.1924 41.9394 56.737V57.6864H19.0662V56.737C19.0662 56.1924 19.4711 55.7801 20.0156 55.7801Z" fill="#FCFCFD"/>
</svg>
