<svg width="54" height="62" viewBox="0 0 54 62" fill="none" xmlns="http://www.w3.org/2000/svg">
<g clip-path="url(#clip0_99_357)">
<path d="M26.9115 22.0228C19.9024 22.0228 13.2961 21.0005 8.30887 19.1455C2.95111 17.1511 0 14.3513 0 11.262C0 8.17266 2.95111 5.37166 8.30887 3.37725C13.2961 1.52223 19.9024 0.5 26.9115 0.5C33.9205 0.5 40.5257 1.52223 45.5117 3.37725C50.873 5.37166 53.8206 8.17146 53.8206 11.262C53.8206 14.3525 50.873 17.1511 45.5117 19.1455C40.5257 21.0005 33.9193 22.0228 26.9115 22.0228ZM26.9115 2.88281C12.4562 2.88281 2.38281 7.29816 2.38281 11.262C2.38281 15.2258 12.4562 19.6399 26.9115 19.6399C41.3668 19.6399 51.439 15.2246 51.439 11.262C51.439 7.29936 41.3656 2.88281 26.9115 2.88281Z" fill="#FCFCFD"/>
<path d="M26.9115 35.1819C19.9024 35.1819 13.2961 34.1597 8.30887 32.3046C2.95111 30.3102 0 27.5104 0 24.4199C0 24.1039 0.125523 23.8009 0.348955 23.5775C0.572387 23.354 0.875426 23.2285 1.19141 23.2285C1.50739 23.2285 1.81043 23.354 2.03386 23.5775C2.25729 23.8009 2.38281 24.1039 2.38281 24.4199C2.38281 28.379 12.4562 32.7991 26.9115 32.7991C41.3668 32.7991 51.439 28.379 51.439 24.4199C51.439 24.1039 51.5645 23.8009 51.7879 23.5775C52.0114 23.354 52.3144 23.2285 52.6304 23.2285C52.9464 23.2285 53.2494 23.354 53.4728 23.5775C53.6963 23.8009 53.8218 24.1039 53.8218 24.4199C53.8218 27.5104 50.8719 30.3102 45.5129 32.3046C40.5257 34.1597 33.9193 35.1819 26.9115 35.1819Z" fill="#FCFCFD"/>
<path d="M26.9115 48.341C19.9024 48.341 13.2961 47.3187 8.30887 45.4637C2.95111 43.4693 0 40.6695 0 37.579C0 37.263 0.125523 36.96 0.348955 36.7365C0.572387 36.5131 0.875426 36.3876 1.19141 36.3876C1.50739 36.3876 1.81043 36.5131 2.03386 36.7365C2.25729 36.96 2.38281 37.263 2.38281 37.579C2.38281 41.5428 12.4562 45.9581 26.9115 45.9581C41.3668 45.9581 51.439 41.5428 51.439 37.579C51.439 37.263 51.5645 36.96 51.7879 36.7365C52.0114 36.5131 52.3144 36.3876 52.6304 36.3876C52.9464 36.3876 53.2494 36.5131 53.4728 36.7365C53.6963 36.96 53.8218 37.263 53.8218 37.579C53.8218 40.6695 50.8719 43.4693 45.5129 45.4637C40.5257 47.3223 33.9193 48.341 26.9115 48.341Z" fill="#FCFCFD"/>
<path d="M26.9115 61.5C19.9024 61.5 13.2961 60.4778 8.30887 58.6216C2.95111 56.6283 0 53.8285 0 50.738V11.262C0 10.946 0.125523 10.6429 0.348955 10.4195C0.572387 10.1961 0.875426 10.0706 1.19141 10.0706C1.50739 10.0706 1.81043 10.1961 2.03386 10.4195C2.25729 10.6429 2.38281 10.946 2.38281 11.262V50.738C2.38281 54.7018 12.4562 59.1172 26.9115 59.1172C41.3668 59.1172 51.439 54.7018 51.439 50.738V11.262C51.439 10.946 51.5645 10.6429 51.7879 10.4195C52.0114 10.1961 52.3144 10.0706 52.6304 10.0706C52.9464 10.0706 53.2494 10.1961 53.4728 10.4195C53.6963 10.6429 53.8218 10.946 53.8218 11.262V50.738C53.8218 53.8285 50.8719 56.6283 45.5129 58.6216C40.5257 60.4778 33.9193 61.5 26.9115 61.5Z" fill="#FCFCFD"/>
<path d="M46.6495 25.6124C46.5715 25.6122 46.4937 25.6042 46.4172 25.5886C46.3409 25.5732 46.2663 25.5505 46.1944 25.5207C46.1222 25.4911 46.0532 25.4543 45.9883 25.4111C45.8576 25.3248 45.7457 25.2129 45.6595 25.0822C45.6167 25.017 45.58 24.9481 45.5499 24.8761C45.5201 24.8042 45.4973 24.7296 45.4819 24.6533C45.4502 24.4997 45.4502 24.3411 45.4819 24.1875C45.5119 24.0339 45.572 23.8878 45.659 23.7577C45.7459 23.6276 45.8579 23.5162 45.9883 23.4298C46.0532 23.3865 46.1222 23.3497 46.1944 23.3201C46.2663 23.2904 46.3409 23.2676 46.4172 23.2522C46.5709 23.2213 46.7293 23.2213 46.883 23.2522C47.1134 23.2989 47.325 23.4119 47.4918 23.5775C47.5469 23.6336 47.5968 23.6946 47.6408 23.7598C47.7274 23.8894 47.7877 24.0347 47.8183 24.1875C47.8485 24.3413 47.8485 24.4995 47.8183 24.6533C47.8029 24.7296 47.7802 24.8042 47.7504 24.8761C47.7203 24.9481 47.6836 25.017 47.6408 25.0822C47.5971 25.1472 47.5472 25.2079 47.4918 25.2633C47.4367 25.3186 47.376 25.3681 47.3108 25.4111C47.2461 25.4541 47.1775 25.4908 47.1058 25.5207C47.0339 25.5503 46.9593 25.573 46.883 25.5886C46.8062 25.6042 46.728 25.6122 46.6495 25.6124Z" fill="#FCFCFD"/>
<path d="M41.8648 26.8087C41.7867 26.8085 41.7089 26.8005 41.6325 26.7848C41.5562 26.7695 41.4816 26.7467 41.4097 26.7169C41.3375 26.6873 41.2684 26.6506 41.2035 26.6073C41.1383 26.5644 41.0776 26.5149 41.0225 26.4596C40.9113 26.3491 40.8234 26.2174 40.7639 26.0724C40.7341 26.0005 40.7114 25.9259 40.696 25.8496C40.6804 25.7711 40.6728 25.6913 40.6734 25.6113C40.6729 25.5313 40.6805 25.4515 40.696 25.373C40.7117 25.2968 40.7345 25.2222 40.7639 25.1502C40.8239 25.0058 40.9118 24.8747 41.0225 24.7642C41.0776 24.7085 41.1383 24.6586 41.2035 24.6153C41.2684 24.572 41.3375 24.5353 41.4097 24.5057C41.4816 24.4759 41.5562 24.4532 41.6325 24.4378C41.7858 24.4068 41.9438 24.4068 42.0971 24.4378C42.1734 24.4532 42.248 24.4759 42.3199 24.5057C42.3921 24.5353 42.4611 24.572 42.526 24.6153C42.6564 24.7024 42.7682 24.8146 42.8548 24.9453C42.8979 25.0099 42.9346 25.0786 42.9644 25.1502C42.9944 25.2221 43.0172 25.2967 43.0324 25.373C43.0483 25.4515 43.0563 25.5313 43.0562 25.6113C43.0564 25.6913 43.0484 25.7712 43.0324 25.8496C43.0175 25.926 42.9948 26.0007 42.9644 26.0724C42.9346 26.1444 42.8979 26.2135 42.8548 26.2785C42.7686 26.4092 42.6567 26.5211 42.526 26.6073C42.4611 26.6506 42.3921 26.6873 42.3199 26.7169C42.248 26.7467 42.1734 26.7695 42.0971 26.7848C42.0206 26.8005 41.9428 26.8085 41.8648 26.8087Z" fill="#FCFCFD"/>
<path d="M37.0801 28.0048C37.0001 28.0049 36.9202 27.9969 36.8418 27.9809C36.7656 27.9654 36.691 27.9427 36.619 27.913C36.4006 27.8241 36.2141 27.6713 36.0841 27.4746C36.0408 27.4097 36.0041 27.3407 35.9745 27.2685C35.9447 27.1966 35.9219 27.122 35.9066 27.0457C35.8913 26.9692 35.8837 26.8914 35.8839 26.8134C35.8835 26.7334 35.891 26.6536 35.9066 26.5751C35.9243 26.4991 35.949 26.4249 35.9804 26.3535C36.0405 26.2094 36.1279 26.0783 36.2378 25.9675C36.2939 25.9124 36.3549 25.8625 36.4201 25.8185C36.4847 25.7755 36.5533 25.7388 36.625 25.7089C36.6969 25.6793 36.7715 25.6566 36.8478 25.641C37.0015 25.6101 37.1599 25.6101 37.3136 25.641C37.3899 25.6564 37.4645 25.6791 37.5364 25.7089C37.6083 25.739 37.6773 25.7757 37.7425 25.8185C37.8073 25.8625 37.8679 25.9124 37.9236 25.9675C37.9789 26.0226 38.0284 26.0833 38.0714 26.1486C38.1144 26.2132 38.1511 26.2818 38.181 26.3535C38.2104 26.4255 38.2332 26.5001 38.2489 26.5763C38.2648 26.6547 38.2728 26.7345 38.2727 26.8146C38.2725 26.8926 38.2645 26.9704 38.2489 27.0469C38.2335 27.1232 38.2108 27.1978 38.181 27.2697C38.1514 27.3418 38.1146 27.4109 38.0714 27.4758C38.0284 27.5411 37.9789 27.6017 37.9236 27.6569C37.8682 27.7119 37.8076 27.7614 37.7425 27.8046C37.6773 27.8474 37.6083 27.8841 37.5364 27.9142C37.4645 27.944 37.3899 27.9668 37.3136 27.9821C37.2367 27.9974 37.1585 28.005 37.0801 28.0048Z" fill="#FCFCFD"/>
<path d="M46.6495 38.7704C46.5715 38.7706 46.4937 38.763 46.4172 38.7477C46.3409 38.7324 46.2663 38.7096 46.1944 38.6798C46.1223 38.6502 46.0532 38.6135 45.9883 38.5702C45.923 38.5269 45.8623 38.477 45.8072 38.4213C45.5844 38.1975 45.459 37.8948 45.4581 37.579C45.458 37.4989 45.466 37.4191 45.482 37.3407C45.4973 37.2644 45.5201 37.1898 45.5499 37.1179C45.58 37.046 45.6167 36.977 45.6595 36.9118C45.7027 36.8467 45.7522 36.7861 45.8072 36.7307C45.8624 36.6754 45.923 36.6259 45.9883 36.5829C46.0532 36.5397 46.1223 36.5029 46.1944 36.4733C46.2663 36.4436 46.3409 36.4208 46.4172 36.4054C46.571 36.3745 46.7293 36.3745 46.8831 36.4054C47.0359 36.4361 47.1812 36.4964 47.3108 36.5829C47.376 36.6259 47.4367 36.6754 47.4919 36.7307C47.5469 36.7864 47.5968 36.847 47.6408 36.9118C47.6836 36.977 47.7203 37.046 47.7504 37.1179C47.7802 37.1898 47.8029 37.2644 47.8183 37.3407C47.8339 37.4191 47.8415 37.499 47.8409 37.579C47.8401 37.8948 47.7146 38.1975 47.4919 38.4213C47.4367 38.477 47.3761 38.5269 47.3108 38.5702C47.1812 38.6568 47.0359 38.7171 46.8831 38.7477C46.8062 38.7629 46.7279 38.7705 46.6495 38.7704Z" fill="#FCFCFD"/>
<path d="M41.8649 39.9666C41.7869 39.9668 41.709 39.9592 41.6326 39.9439C41.5563 39.9285 41.4817 39.9058 41.4098 39.876C41.3376 39.8464 41.2685 39.8097 41.2036 39.7664C41.1384 39.7235 41.0777 39.674 41.0226 39.6187C40.9675 39.563 40.9176 39.5024 40.8736 39.4376C40.8308 39.3724 40.7941 39.3034 40.764 39.2315C40.7342 39.1596 40.7115 39.085 40.6961 39.0087C40.6659 38.8549 40.6659 38.6966 40.6961 38.5428C40.7115 38.4665 40.7342 38.3919 40.764 38.32C40.7941 38.2481 40.8308 38.1791 40.8736 38.1139C40.9176 38.0491 40.9675 37.9885 41.0226 37.9328C41.0777 37.8775 41.1384 37.828 41.2036 37.7851C41.2685 37.7418 41.3376 37.7051 41.4098 37.6755C41.4817 37.6457 41.5563 37.623 41.6326 37.6076C41.7859 37.5766 41.9439 37.5766 42.0972 37.6076C42.1735 37.623 42.2481 37.6457 42.32 37.6755C42.3922 37.7051 42.4612 37.7418 42.5261 37.7851C42.5914 37.828 42.6521 37.8775 42.7072 37.9328C42.7623 37.9882 42.8117 38.0489 42.8549 38.1139C42.8977 38.1791 42.9344 38.2481 42.9645 38.32C42.9949 38.3917 43.0176 38.4664 43.0325 38.5428C43.0642 38.6965 43.0642 38.855 43.0325 39.0087C43.0176 39.0851 42.9949 39.1598 42.9645 39.2315C42.9344 39.3034 42.8977 39.3724 42.8549 39.4376C42.8117 39.5026 42.7623 39.5633 42.7072 39.6187C42.6521 39.674 42.5914 39.7235 42.5261 39.7664C42.4612 39.8097 42.3922 39.8464 42.32 39.876C42.2481 39.9058 42.1735 39.9285 42.0972 39.9439C42.0207 39.9592 41.9429 39.9668 41.8649 39.9666Z" fill="#FCFCFD"/>
<path d="M37.0801 41.1627C37.0001 41.1632 36.9203 41.1556 36.8418 41.1401C36.7656 41.1245 36.691 41.1018 36.619 41.0722C36.4748 41.0117 36.3434 40.9244 36.2318 40.8148C36.1214 40.7039 36.034 40.5723 35.9745 40.4276C35.9447 40.3557 35.9219 40.2811 35.9066 40.2048C35.8913 40.1283 35.8838 40.0505 35.8839 39.9725C35.8845 39.6565 36.0095 39.3535 36.2318 39.129C36.2879 39.0743 36.3489 39.0248 36.4141 38.9812C36.4787 38.9382 36.5473 38.9015 36.619 38.8716C36.691 38.842 36.7656 38.8193 36.8418 38.8037C37.073 38.7568 37.3129 38.7799 37.5309 38.8701C37.7489 38.9603 37.935 39.1135 38.0654 39.3101C38.1082 39.3752 38.1449 39.4442 38.175 39.5162C38.2048 39.5881 38.2275 39.6627 38.2429 39.739C38.2747 39.8926 38.2747 40.0512 38.2429 40.2048C38.2275 40.2811 38.2048 40.3557 38.175 40.4276C38.1449 40.4995 38.1082 40.5685 38.0654 40.6337C37.9791 40.7644 37.8673 40.8763 37.7365 40.9625C37.6714 41.0053 37.6024 41.042 37.5304 41.0722C37.4585 41.1019 37.3839 41.1247 37.3076 41.1401C37.2327 41.155 37.1565 41.1625 37.0801 41.1627Z" fill="#FCFCFD"/>
<path d="M46.6495 51.9295C46.5715 51.9297 46.4937 51.9221 46.4172 51.9069C46.3409 51.8915 46.2663 51.8687 46.1944 51.8389C46.1223 51.8097 46.0533 51.7734 45.9883 51.7305C45.9233 51.6868 45.8626 51.637 45.8072 51.5816C45.7519 51.5265 45.7024 51.4658 45.6595 51.4005C45.6164 51.3359 45.5797 51.2672 45.5499 51.1956C45.5202 51.1236 45.4975 51.049 45.482 50.9728C45.466 50.8944 45.4581 50.8145 45.4581 50.7345C45.4583 50.6565 45.4663 50.5786 45.482 50.5022C45.4973 50.4259 45.5201 50.3513 45.5499 50.2794C45.5795 50.2072 45.6162 50.1382 45.6595 50.0733C45.7457 49.9426 45.8576 49.8307 45.9883 49.7444C46.0532 49.7012 46.1223 49.6644 46.1944 49.6348C46.2663 49.6051 46.3409 49.5823 46.4172 49.5669C46.571 49.536 46.7293 49.536 46.8831 49.5669C46.9593 49.5825 47.0339 49.6052 47.1058 49.6348C47.1775 49.6647 47.2461 49.7014 47.3108 49.7444C47.376 49.7874 47.4367 49.8369 47.4919 49.8922C47.5472 49.9476 47.5971 50.0083 47.6408 50.0733C47.6841 50.1382 47.7208 50.2072 47.7504 50.2794C47.7802 50.3513 47.8029 50.4259 47.8183 50.5022C47.8336 50.5787 47.8411 50.6565 47.8409 50.7345C47.8414 50.8145 47.8338 50.8943 47.8183 50.9728C47.8028 51.049 47.78 51.1236 47.7504 51.1956C47.6758 51.3769 47.5576 51.537 47.4063 51.6617C47.255 51.7864 47.0753 51.8718 46.8831 51.9104C46.806 51.9244 46.7278 51.9308 46.6495 51.9295Z" fill="#FCFCFD"/>
<path d="M41.8649 53.1256C41.7869 53.1258 41.709 53.1182 41.6325 53.103C41.5563 53.0876 41.4816 53.0649 41.4098 53.0351C41.3376 53.0055 41.2685 52.9688 41.2036 52.9255C41.0732 52.838 40.9611 52.7259 40.8736 52.5954C40.8314 52.5305 40.7951 52.4619 40.7652 52.3905C40.7349 52.3188 40.7121 52.2442 40.6973 52.1677C40.6814 52.0893 40.6734 52.0095 40.6735 51.9295C40.6737 51.8514 40.6816 51.7736 40.6973 51.6971C40.7121 51.6207 40.7349 51.546 40.7652 51.4743C40.7949 51.4024 40.8312 51.3334 40.8736 51.2682C40.9173 51.2032 40.9672 51.1426 41.0225 51.0871C41.0777 51.0318 41.1384 50.9823 41.2036 50.9394C41.2685 50.8961 41.3376 50.8594 41.4098 50.8298C41.4816 50.8 41.5563 50.7773 41.6325 50.7619C41.7859 50.7309 41.9439 50.7309 42.0972 50.7619C42.1735 50.7773 42.2481 50.8 42.32 50.8298C42.3922 50.8594 42.4612 50.8961 42.5261 50.9394C42.5914 50.9823 42.652 51.0318 42.7072 51.0871C42.7623 51.1425 42.8117 51.2032 42.8549 51.2682C42.8982 51.3331 42.9349 51.4022 42.9645 51.4743C42.9949 51.546 43.0176 51.6207 43.0324 51.6971C43.0481 51.7736 43.0561 51.8514 43.0563 51.9295C43.0564 52.0095 43.0484 52.0893 43.0324 52.1677C43.0176 52.2442 42.9949 52.3188 42.9645 52.3905C42.9347 52.4622 42.898 52.5308 42.8549 52.5954C42.812 52.6607 42.7625 52.7214 42.7072 52.7765C42.6518 52.8319 42.5911 52.8818 42.5261 52.9255C42.4612 52.9688 42.3922 53.0055 42.32 53.0351C42.2481 53.0649 42.1735 53.0876 42.0972 53.103C42.0207 53.1182 41.9429 53.1258 41.8649 53.1256Z" fill="#FCFCFD"/>
<path d="M37.0801 54.323C37.0001 54.3231 36.9202 54.3151 36.8418 54.2991C36.7656 54.2836 36.691 54.2609 36.619 54.2312C36.4014 54.141 36.2153 53.9882 36.0845 53.7923C35.9537 53.5963 35.8839 53.366 35.8839 53.1304C35.8838 53.0524 35.8913 52.9746 35.9066 52.8981C35.9219 52.8218 35.9447 52.7472 35.9745 52.6753C36.034 52.5305 36.1214 52.399 36.2318 52.2881C36.3434 52.1785 36.4748 52.0911 36.619 52.0307C36.691 52.0011 36.7656 51.9784 36.8418 51.9628C36.9955 51.9318 37.1539 51.9318 37.3076 51.9628C37.3839 51.9782 37.4585 52.0009 37.5304 52.0307C37.6024 52.0608 37.6714 52.0975 37.7365 52.1403C37.8673 52.2266 37.9791 52.3384 38.0654 52.4691C38.1082 52.5343 38.1449 52.6033 38.175 52.6753C38.2048 52.7472 38.2275 52.8218 38.2429 52.8981C38.2585 52.9745 38.2665 53.0523 38.2667 53.1304C38.2668 53.3265 38.2184 53.5195 38.1259 53.6925C38.0334 53.8654 37.8997 54.0128 37.7365 54.1216C37.6714 54.1644 37.6024 54.2011 37.5304 54.2312C37.4585 54.261 37.3839 54.2838 37.3076 54.2991C37.2327 54.3145 37.1565 54.3225 37.0801 54.323Z" fill="#FCFCFD"/>
</g>
<defs>
<clipPath id="clip0_99_357">
<rect width="53.8218" height="61" fill="white" transform="translate(0 0.5)"/>
</clipPath>
</defs>
</svg>
