<svg width="61" height="62" viewBox="0 0 61 62" fill="none" xmlns="http://www.w3.org/2000/svg">
<g clip-path="url(#clip0_99_311)">
<mask id="mask0_99_311" style="mask-type:luminance" maskUnits="userSpaceOnUse" x="0" y="0" width="61" height="62">
<path d="M0 0.833256H61V61.8333H0V0.833256Z" fill="white"/>
</mask>
<g mask="url(#mask0_99_311)">
<path d="M15.9219 52.9903V59.7483C15.9219 60.4063 16.4554 60.9397 17.1133 60.9397H40.3184C40.9763 60.9397 41.5098 60.4063 41.5098 59.7483V54.1495C41.5098 53.4916 42.0431 52.9581 42.7012 52.9581H49.3589C51.991 52.9581 54.1246 50.8245 54.1246 48.1925V47.4159" stroke="#FCFCFD" stroke-width="1.78711" stroke-miterlimit="10" stroke-linecap="round" stroke-linejoin="round"/>
<path d="M54.1246 43.5681V41.8628C54.1246 41.2048 54.6581 40.6714 55.316 40.6714H58.5323C59.4288 40.6714 60.0042 39.7188 59.5868 38.9254L54.33 28.9298C54.1951 28.6733 54.1246 28.3878 54.1246 28.0979V24.8362C54.1246 12.2914 44.1202 1.92524 31.5771 1.72973C18.7552 1.52981 8.29834 11.8637 8.29834 24.6399C8.29834 31.1433 11.0096 37.0116 15.3614 41.182C15.7164 41.5223 15.9219 41.9896 15.9219 42.4814V49.0231" stroke="#FCFCFD" stroke-width="1.78711" stroke-miterlimit="10" stroke-linecap="round" stroke-linejoin="round"/>
<path d="M19.0596 11.9781L12.686 5.6046C12.3508 5.26946 11.8963 5.0811 11.4223 5.0811H5.5376" stroke="#FCFCFD" stroke-width="1.78711" stroke-miterlimit="10" stroke-linecap="round" stroke-linejoin="round"/>
<path d="M13.9955 24.1215H5.29956" stroke="#FCFCFD" stroke-width="1.78711" stroke-miterlimit="10" stroke-linecap="round" stroke-linejoin="round"/>
<path d="M19.0083 36.0225L10.1346 44.8962C9.79944 45.2314 9.61108 45.6859 9.61108 46.16V48.694" stroke="#FCFCFD" stroke-width="1.78711" stroke-miterlimit="10" stroke-linecap="round" stroke-linejoin="round"/>
<path d="M5.0358 5.08104C5.0358 6.11971 4.19384 6.96179 3.15505 6.96179C2.11638 6.96179 1.27441 6.11971 1.27441 5.08104C1.27441 4.04237 2.11638 3.20028 3.15505 3.20028C4.19384 3.20028 5.0358 4.04237 5.0358 5.08104Z" stroke="#FCFCFD" stroke-width="1.78711" stroke-miterlimit="10" stroke-linecap="round" stroke-linejoin="round"/>
<path d="M5.0358 24.1214C5.0358 25.1601 4.19384 26.0022 3.15505 26.0022C2.11638 26.0022 1.27441 25.1601 1.27441 24.1214C1.27441 23.0828 2.11638 22.2407 3.15505 22.2407C4.19384 22.2407 5.0358 23.0828 5.0358 24.1214Z" stroke="#FCFCFD" stroke-width="1.78711" stroke-miterlimit="10" stroke-linecap="round" stroke-linejoin="round"/>
<path d="M11.4915 51.0766C11.4915 52.1153 10.6495 52.9574 9.61073 52.9574C8.57207 52.9574 7.72998 52.1153 7.72998 51.0766C7.72998 50.038 8.57207 49.1959 9.61073 49.1959C10.6495 49.1959 11.4915 50.038 11.4915 51.0766Z" stroke="#FCFCFD" stroke-width="1.78711" stroke-miterlimit="10" stroke-linecap="round" stroke-linejoin="round"/>
<path d="M22.2989 22.3281C23.1287 18.2731 26.7165 15.2228 31.0169 15.2228C35.9315 15.2228 39.9155 19.2068 39.9155 24.1215C39.9155 29.0362 35.9315 33.0202 31.0169 33.0202C26.7812 33.0202 23.2367 30.0609 22.3382 26.097M47.2216 21.076H43.3479C43.0836 21.076 42.852 20.9017 42.7772 20.6483C42.5306 19.8127 42.1973 19.0143 41.7878 18.2632C41.6612 18.031 41.7015 17.7437 41.8886 17.5567L44.6287 14.8165C44.8614 14.5839 44.8614 14.2066 44.6287 13.9741L41.1644 10.5096C40.9317 10.277 40.5546 10.277 40.3218 10.5096L37.5816 13.2498C37.3946 13.4368 37.1073 13.4771 36.8752 13.3506C36.1241 12.9411 35.3258 12.6077 34.49 12.3611C34.2366 12.2864 34.0623 12.0547 34.0623 11.7906V7.91682C34.0623 7.58788 33.7955 7.32112 33.4666 7.32112H28.5672C28.2382 7.32112 27.9715 7.58788 27.9715 7.91682V11.7906C27.9715 12.0547 27.797 12.2864 27.5437 12.3611C26.7081 12.6077 25.9097 12.9411 25.1587 13.3506C24.9265 13.4771 24.6391 13.4368 24.452 13.2498L21.7119 10.5096C21.4792 10.277 21.102 10.277 20.8695 10.5096L17.405 13.9741C17.1724 14.2066 17.1724 14.5839 17.405 14.8165L20.1452 17.5567C20.3322 17.7437 20.3725 18.031 20.246 18.2632C19.8365 19.0143 19.5031 19.8127 19.2566 20.6483C19.1819 20.9017 18.9501 21.076 18.686 21.076H14.8123C14.4832 21.076 14.2166 21.3428 14.2166 21.6717V26.5711C14.2166 26.9002 14.4832 27.1669 14.8123 27.1669H18.686C18.9501 27.1669 19.1819 27.3413 19.2566 27.5947C19.5031 28.4303 19.8365 29.2287 20.246 29.9798C20.3725 30.212 20.3322 30.4992 20.1452 30.6863L17.405 33.4265C17.1724 33.6591 17.1724 34.0363 17.405 34.2689L20.8695 37.7333C21.102 37.966 21.4792 37.966 21.7119 37.7333L24.452 34.9932C24.6391 34.8061 24.9265 34.7658 25.1587 34.8924C25.9097 35.3019 26.7081 35.6352 27.5437 35.8819C27.797 35.9566 27.9715 36.1882 27.9715 36.4524V40.3262C27.9715 40.6551 28.2382 40.9219 28.5672 40.9219H33.4666C33.7955 40.9219 34.0623 40.6551 34.0623 40.3262V36.4524C34.0623 36.1882 34.2366 35.9566 34.49 35.8819C35.3258 35.6352 36.1241 35.3019 36.8752 34.8924C37.1073 34.7658 37.3946 34.8061 37.5816 34.9932L40.3218 37.7333C40.5546 37.966 40.9317 37.966 41.1644 37.7333L44.6287 34.2689C44.8614 34.0363 44.8614 33.6591 44.6287 33.4265L41.8886 30.6863C41.7015 30.4992 41.6612 30.212 41.7878 29.9798C42.1973 29.2287 42.5306 28.4303 42.7772 27.5947C42.852 27.3413 43.0836 27.1669 43.3479 27.1669H47.2216C47.5506 27.1669 47.8173 26.9002 47.8173 26.5711V21.6717C47.8173 21.3428 47.5506 21.076 47.2216 21.076Z" stroke="#FCFCFD" stroke-width="1.78711" stroke-miterlimit="10" stroke-linecap="round" stroke-linejoin="round"/>
</g>
</g>
<defs>
<clipPath id="clip0_99_311">
<rect width="61" height="61" fill="white" transform="translate(0 0.833252)"/>
</clipPath>
</defs>
</svg>
