<svg width="61" height="62" viewBox="0 0 61 62" fill="none" xmlns="http://www.w3.org/2000/svg">
<path d="M58.8174 13.167L48.333 2.68266C48.1512 2.50709 47.9089 2.40813 47.6563 2.40625H23.8281C23.0705 2.40851 22.3445 2.71049 21.8088 3.24624C21.273 3.78199 20.971 4.50797 20.9688 5.26562V11.032C15.8348 11.2727 10.9907 13.4815 7.44258 17.1999C3.89442 20.9182 1.91479 25.8604 1.91479 31C1.91479 36.1396 3.89442 41.0818 7.44258 44.8001C10.9907 48.5185 15.8348 50.7273 20.9688 50.968V56.7344C20.971 57.492 21.273 58.218 21.8088 58.7538C22.3445 59.2895 23.0705 59.5915 23.8281 59.5938H56.2344C56.992 59.5915 57.718 59.2895 58.2538 58.7538C58.7895 58.218 59.0915 57.492 59.0938 56.7344V13.8438C59.0919 13.5911 58.9929 13.3488 58.8174 13.167ZM48.6094 5.65641L55.8436 12.8906H49.5625C49.3097 12.8906 49.0673 12.7902 48.8885 12.6115C48.7098 12.4327 48.6094 12.1903 48.6094 11.9375V5.65641ZM3.81251 31C3.81872 26.3643 5.60032 21.907 8.79117 18.5442C11.982 15.1814 16.3397 13.1685 20.9688 12.9192V30.6092L8.48282 43.0952C5.47716 39.7839 3.81222 35.472 3.81251 31ZM9.82673 44.4391L22.3127 31.9531H40.0027C39.8291 35.3684 38.6901 38.6643 36.7182 41.4581C34.7462 44.2519 32.0221 46.429 28.8622 47.7364C25.7024 49.0439 22.2364 49.4281 18.867 48.8444C15.4975 48.2608 12.3627 46.7332 9.82673 44.4391ZM57.1875 56.7344C57.1875 56.9872 57.0871 57.2296 56.9083 57.4083C56.7296 57.5871 56.4872 57.6875 56.2344 57.6875H23.8281C23.5754 57.6875 23.3329 57.5871 23.1542 57.4083C22.9754 57.2296 22.875 56.9872 22.875 56.7344V50.968C28.0072 50.72 32.8479 48.5092 36.3959 44.7927C39.9439 41.0761 41.9278 36.1382 41.9375 31C41.9375 30.7472 41.8371 30.5048 41.6583 30.326C41.4796 30.1473 41.2372 30.0469 40.9844 30.0469H22.875V5.26562C22.875 5.01284 22.9754 4.77041 23.1542 4.59166C23.3329 4.41292 23.5754 4.3125 23.8281 4.3125H46.7031V11.9375C46.7054 12.6952 47.0074 13.4211 47.5431 13.9569C48.0789 14.4926 48.8049 14.7946 49.5625 14.7969H57.1875V56.7344Z" fill="#FCFCFD"/>
<path d="M25.7344 7.17188C25.4816 7.17188 25.2392 7.27229 25.0604 7.45104C24.8817 7.62978 24.7812 7.87222 24.7812 8.125V27.1875C24.7812 27.4403 24.8817 27.6827 25.0604 27.8615C25.2392 28.0402 25.4816 28.1406 25.7344 28.1406H44.7969C45.0497 28.1406 45.2921 28.0402 45.4708 27.8615C45.6496 27.6827 45.75 27.4403 45.75 27.1875C45.7442 21.8808 43.6336 16.7931 39.8812 13.0407C36.1287 9.28832 31.0411 7.17768 25.7344 7.17188ZM26.6875 26.2344V9.10672C31.1522 9.34645 35.3708 11.2279 38.5324 14.3895C41.694 17.5511 43.5754 21.7697 43.8152 26.2344H26.6875Z" fill="#FCFCFD"/>
<path d="M46.7031 38.625C45.0065 38.625 43.348 39.1281 41.9374 40.0707C40.5267 41.0133 39.4272 42.353 38.778 43.9204C38.1287 45.4879 37.9588 47.2126 38.2898 48.8766C38.6208 50.5406 39.4378 52.0691 40.6375 53.2688C41.8372 54.4684 43.3656 55.2854 45.0296 55.6164C46.6936 55.9474 48.4184 55.7775 49.9858 55.1283C51.5533 54.479 52.893 53.3795 53.8356 51.9689C54.7782 50.5582 55.2813 48.8997 55.2813 47.2031C55.2777 44.9291 54.3728 42.7493 52.7649 41.1414C51.1569 39.5334 48.9771 38.6285 46.7031 38.625ZM46.7031 53.875C45.3836 53.875 44.0936 53.4837 42.9964 52.7506C41.8992 52.0175 41.0441 50.9755 40.5391 49.7563C40.0341 48.5372 39.902 47.1957 40.1595 45.9015C40.4169 44.6073 41.0523 43.4185 41.9854 42.4854C42.9185 41.5523 44.1073 40.9169 45.4015 40.6594C46.6957 40.402 48.0372 40.5341 49.2563 41.0391C50.4755 41.5441 51.5175 42.3992 52.2506 43.4964C52.9837 44.5936 53.375 45.8836 53.375 47.2031C53.373 48.972 52.6694 50.6678 51.4186 51.9186C50.1678 53.1694 48.472 53.873 46.7031 53.875Z" fill="#FCFCFD"/>
<path d="M44.7969 48.7148L42.6114 46.5293L41.2637 47.877L44.123 50.7364C44.3018 50.9151 44.5442 51.0155 44.7969 51.0155C45.0496 51.0155 45.292 50.9151 45.4708 50.7364L51.1895 45.0176L49.8418 43.6699L44.7969 48.7148Z" fill="#FCFCFD"/>
<path d="M47.6562 18.6094H55.2812V20.5156H47.6562V18.6094Z" fill="#FCFCFD"/>
<path d="M47.6562 24.3281H55.2812V26.2344H47.6562V24.3281Z" fill="#FCFCFD"/>
<path d="M47.6562 30.0469H55.2812V31.9531H47.6562V30.0469Z" fill="#FCFCFD"/>
</svg>
