<svg xmlns="http://www.w3.org/2000/svg" xmlns:xlink="http://www.w3.org/1999/xlink" width="500" zoomAndPan="magnify" viewBox="0 0 375 206.249992" height="275" preserveAspectRatio="xMidYMid meet" version="1.0"><defs><g/><clipPath id="id1"><path d="M 1 6 L 112.773438 6 L 112.773438 200 L 1 200 Z M 1 6 " clip-rule="nonzero"/></clipPath><clipPath id="id2"><path d="M 56.464844 87.765625 L 101.335938 61.949219 L 101.335938 72.691406 C 86.089844 81.527344 70.84375 90.363281 55.597656 99.199219 L 55.597656 88.457031 L 56.292969 88.113281 C 56.292969 88.113281 56.464844 87.9375 56.464844 87.9375 Z M 43.992188 173.871094 L 55.597656 167.289062 L 55.597656 112.367188 C 70.152344 104.050781 84.707031 95.5625 99.257812 87.246094 L 112.945312 79.449219 L 112.945312 39.945312 C 112.945312 39.425781 112.597656 38.90625 112.253906 38.734375 L 57.679688 7.203125 C 57.160156 6.855469 56.640625 6.855469 56.292969 7.203125 L 1.71875 38.734375 C 1.199219 39.082031 1.027344 39.425781 1.027344 39.945312 L 1.027344 169.195312 C 1.027344 169.714844 1.371094 170.234375 1.71875 170.40625 C 2.238281 170.753906 2.757812 170.753906 3.105469 170.40625 L 32.730469 153.429688 C 33.25 153.082031 33.421875 152.734375 33.421875 152.214844 L 33.421875 58.832031 C 33.421875 58.3125 33.769531 57.792969 34.117188 57.617188 L 44.339844 51.726562 L 44.339844 122.761719 L 44.164062 122.761719 L 44.164062 161.226562 L 1.371094 185.308594 L 1.027344 199.515625 L 44.164062 174.390625 Z M 55.597656 44.625 L 56.121094 44.277344 C 56.640625 43.929688 57.160156 43.929688 57.503906 44.277344 L 80.894531 57.792969 C 81.414062 58.136719 81.585938 58.484375 81.585938 59.003906 C 81.585938 59.523438 81.242188 60.042969 80.894531 60.21875 L 55.425781 74.945312 L 55.425781 44.625 Z M 94.0625 52.074219 L 57.679688 31.109375 C 57.160156 30.765625 56.640625 30.765625 56.292969 31.109375 L 22.683594 50.515625 C 22.164062 50.863281 21.988281 51.207031 21.988281 51.726562 L 21.988281 145.113281 C 21.988281 145.632812 21.640625 146.152344 21.296875 146.324219 L 14.886719 150.136719 C 14.367188 150.484375 13.847656 150.484375 13.5 150.136719 C 12.980469 149.789062 12.808594 149.445312 12.808594 148.921875 L 12.808594 46.355469 C 12.808594 45.835938 13.152344 45.316406 13.5 45.144531 L 56.640625 20.195312 C 57.160156 19.847656 57.679688 19.847656 58.023438 20.195312 L 101.164062 45.144531 C 101.683594 45.492188 101.855469 45.835938 101.855469 46.355469 L 101.855469 47.742188 C 101.855469 48.261719 101.511719 48.78125 101.164062 48.957031 L 95.964844 51.902344 C 95.445312 52.246094 94.925781 52.246094 94.582031 51.902344 Z M 94.0625 52.074219 " clip-rule="evenodd"/></clipPath><linearGradient x1="0.748245" gradientTransform="matrix(17.324943, 0, 0, 17.325437, 0.679355, 6.681812)" y1="11.528603" x2="6.918567" gradientUnits="userSpaceOnUse" y2="0.255522" id="id3"><stop stop-opacity="1" stop-color="rgb(20.399475%, 80.799866%, 63.09967%)" offset="0"/><stop stop-opacity="1" stop-color="rgb(20.399475%, 80.799866%, 63.09967%)" offset="0.240977"/><stop stop-opacity="1" stop-color="rgb(20.399475%, 80.799866%, 63.09967%)" offset="0.25"/><stop stop-opacity="1" stop-color="rgb(20.399475%, 80.799866%, 63.09967%)" offset="0.28125"/><stop stop-opacity="1" stop-color="rgb(20.399475%, 80.799866%, 63.09967%)" offset="0.296875"/><stop stop-opacity="1" stop-color="rgb(20.423889%, 80.793762%, 63.241577%)" offset="0.304688"/><stop stop-opacity="1" stop-color="rgb(20.472717%, 80.780029%, 63.53302%)" offset="0.3125"/><stop stop-opacity="1" stop-color="rgb(20.523071%, 80.767822%, 63.829041%)" offset="0.320312"/><stop stop-opacity="1" stop-color="rgb(20.573425%, 80.755615%, 64.125061%)" offset="0.328125"/><stop stop-opacity="1" stop-color="rgb(20.623779%, 80.743408%, 64.421082%)" offset="0.335938"/><stop stop-opacity="1" stop-color="rgb(20.674133%, 80.729675%, 64.717102%)" offset="0.34375"/><stop stop-opacity="1" stop-color="rgb(20.724487%, 80.717468%, 65.013123%)" offset="0.351562"/><stop stop-opacity="1" stop-color="rgb(20.774841%, 80.705261%, 65.309143%)" offset="0.359375"/><stop stop-opacity="1" stop-color="rgb(20.825195%, 80.693054%, 65.605164%)" offset="0.367187"/><stop stop-opacity="1" stop-color="rgb(20.875549%, 80.679321%, 65.901184%)" offset="0.375"/><stop stop-opacity="1" stop-color="rgb(20.925903%, 80.667114%, 66.197205%)" offset="0.382812"/><stop stop-opacity="1" stop-color="rgb(20.976257%, 80.654907%, 66.493225%)" offset="0.390625"/><stop stop-opacity="1" stop-color="rgb(21.026611%, 80.6427%, 66.789246%)" offset="0.398438"/><stop stop-opacity="1" stop-color="rgb(21.076965%, 80.628967%, 67.085266%)" offset="0.40625"/><stop stop-opacity="1" stop-color="rgb(21.127319%, 80.61676%, 67.381287%)" offset="0.414062"/><stop stop-opacity="1" stop-color="rgb(21.177673%, 80.604553%, 67.677307%)" offset="0.421875"/><stop stop-opacity="1" stop-color="rgb(21.228027%, 80.592346%, 67.973328%)" offset="0.429688"/><stop stop-opacity="1" stop-color="rgb(21.278381%, 80.578613%, 68.269348%)" offset="0.4375"/><stop stop-opacity="1" stop-color="rgb(21.328735%, 80.566406%, 68.565369%)" offset="0.445312"/><stop stop-opacity="1" stop-color="rgb(21.379089%, 80.554199%, 68.861389%)" offset="0.453125"/><stop stop-opacity="1" stop-color="rgb(21.429443%, 80.541992%, 69.15741%)" offset="0.460937"/><stop stop-opacity="1" stop-color="rgb(21.479797%, 80.528259%, 69.45343%)" offset="0.46875"/><stop stop-opacity="1" stop-color="rgb(21.530151%, 80.516052%, 69.749451%)" offset="0.476562"/><stop stop-opacity="1" stop-color="rgb(21.580505%, 80.503845%, 70.045471%)" offset="0.484375"/><stop stop-opacity="1" stop-color="rgb(21.630859%, 80.491638%, 70.341492%)" offset="0.492188"/><stop stop-opacity="1" stop-color="rgb(21.681213%, 80.477905%, 70.637512%)" offset="0.5"/><stop stop-opacity="1" stop-color="rgb(21.731567%, 80.465698%, 70.933533%)" offset="0.507812"/><stop stop-opacity="1" stop-color="rgb(21.781921%, 80.453491%, 71.229553%)" offset="0.515625"/><stop stop-opacity="1" stop-color="rgb(21.832275%, 80.439758%, 71.525574%)" offset="0.523438"/><stop stop-opacity="1" stop-color="rgb(21.882629%, 80.427551%, 71.821594%)" offset="0.53125"/><stop stop-opacity="1" stop-color="rgb(21.932983%, 80.415344%, 72.117615%)" offset="0.539063"/><stop stop-opacity="1" stop-color="rgb(21.981812%, 80.403137%, 72.410583%)" offset="0.546875"/><stop stop-opacity="1" stop-color="rgb(22.02301%, 80.39093%, 72.689819%)" offset="0.554688"/><stop stop-opacity="1" stop-color="rgb(22.05658%, 80.378723%, 72.9599%)" offset="0.5625"/><stop stop-opacity="1" stop-color="rgb(22.091675%, 80.36499%, 73.228455%)" offset="0.570313"/><stop stop-opacity="1" stop-color="rgb(22.125244%, 80.352783%, 73.498535%)" offset="0.578125"/><stop stop-opacity="1" stop-color="rgb(22.158813%, 80.340576%, 73.76709%)" offset="0.585938"/><stop stop-opacity="1" stop-color="rgb(22.193909%, 80.328369%, 74.03717%)" offset="0.59375"/><stop stop-opacity="1" stop-color="rgb(22.227478%, 80.316162%, 74.307251%)" offset="0.601563"/><stop stop-opacity="1" stop-color="rgb(22.261047%, 80.303955%, 74.575806%)" offset="0.609375"/><stop stop-opacity="1" stop-color="rgb(22.296143%, 80.291748%, 74.845886%)" offset="0.617188"/><stop stop-opacity="1" stop-color="rgb(22.329712%, 80.279541%, 75.115967%)" offset="0.625"/><stop stop-opacity="1" stop-color="rgb(22.363281%, 80.265808%, 75.384521%)" offset="0.632812"/><stop stop-opacity="1" stop-color="rgb(22.398376%, 80.253601%, 75.654602%)" offset="0.640625"/><stop stop-opacity="1" stop-color="rgb(22.431946%, 80.241394%, 75.923157%)" offset="0.648438"/><stop stop-opacity="1" stop-color="rgb(22.465515%, 80.229187%, 76.193237%)" offset="0.65625"/><stop stop-opacity="1" stop-color="rgb(22.50061%, 80.21698%, 76.463318%)" offset="0.664062"/><stop stop-opacity="1" stop-color="rgb(22.53418%, 80.204773%, 76.731873%)" offset="0.671875"/><stop stop-opacity="1" stop-color="rgb(22.567749%, 80.192566%, 77.001953%)" offset="0.679687"/><stop stop-opacity="1" stop-color="rgb(22.602844%, 80.180359%, 77.272034%)" offset="0.6875"/><stop stop-opacity="1" stop-color="rgb(22.636414%, 80.166626%, 77.540588%)" offset="0.695312"/><stop stop-opacity="1" stop-color="rgb(22.669983%, 80.154419%, 77.810669%)" offset="0.703125"/><stop stop-opacity="1" stop-color="rgb(22.705078%, 80.142212%, 78.079224%)" offset="0.710938"/><stop stop-opacity="1" stop-color="rgb(22.738647%, 80.130005%, 78.349304%)" offset="0.71875"/><stop stop-opacity="1" stop-color="rgb(22.772217%, 80.117798%, 78.619385%)" offset="0.726563"/><stop stop-opacity="1" stop-color="rgb(22.807312%, 80.105591%, 78.887939%)" offset="0.734375"/><stop stop-opacity="1" stop-color="rgb(22.840881%, 80.093384%, 79.15802%)" offset="0.742188"/><stop stop-opacity="1" stop-color="rgb(22.874451%, 80.081177%, 79.428101%)" offset="0.75"/><stop stop-opacity="1" stop-color="rgb(22.909546%, 80.067444%, 79.696655%)" offset="0.757813"/><stop stop-opacity="1" stop-color="rgb(22.943115%, 80.055237%, 79.966736%)" offset="0.759023"/><stop stop-opacity="1" stop-color="rgb(22.9599%, 80.049133%, 80.101013%)" offset="0.765625"/><stop stop-opacity="1" stop-color="rgb(22.976685%, 80.04303%, 80.235291%)" offset="0.773438"/><stop stop-opacity="1" stop-color="rgb(23.01178%, 80.030823%, 80.505371%)" offset="0.78125"/><stop stop-opacity="1" stop-color="rgb(23.045349%, 80.018616%, 80.775452%)" offset="0.789062"/><stop stop-opacity="1" stop-color="rgb(23.078918%, 80.006409%, 81.044006%)" offset="0.796875"/><stop stop-opacity="1" stop-color="rgb(23.11554%, 79.998779%, 81.298828%)" offset="0.804688"/><stop stop-opacity="1" stop-color="rgb(23.152161%, 79.998779%, 81.538391%)" offset="0.8125"/><stop stop-opacity="1" stop-color="rgb(23.188782%, 79.998779%, 81.776428%)" offset="0.820312"/><stop stop-opacity="1" stop-color="rgb(23.223877%, 79.998779%, 82.014465%)" offset="0.828125"/><stop stop-opacity="1" stop-color="rgb(23.260498%, 79.998779%, 82.252502%)" offset="0.835938"/><stop stop-opacity="1" stop-color="rgb(23.297119%, 79.998779%, 82.489014%)" offset="0.84375"/><stop stop-opacity="1" stop-color="rgb(23.33374%, 79.998779%, 82.727051%)" offset="0.851562"/><stop stop-opacity="1" stop-color="rgb(23.370361%, 79.998779%, 82.965088%)" offset="0.859375"/><stop stop-opacity="1" stop-color="rgb(23.406982%, 79.998779%, 83.203125%)" offset="0.867187"/><stop stop-opacity="1" stop-color="rgb(23.443604%, 79.998779%, 83.441162%)" offset="0.875"/><stop stop-opacity="1" stop-color="rgb(23.480225%, 79.998779%, 83.679199%)" offset="0.882812"/><stop stop-opacity="1" stop-color="rgb(23.516846%, 79.998779%, 83.91571%)" offset="0.890625"/><stop stop-opacity="1" stop-color="rgb(23.553467%, 79.998779%, 84.153748%)" offset="0.898437"/><stop stop-opacity="1" stop-color="rgb(23.590088%, 79.998779%, 84.391785%)" offset="0.90625"/><stop stop-opacity="1" stop-color="rgb(23.626709%, 79.998779%, 84.629822%)" offset="0.914063"/><stop stop-opacity="1" stop-color="rgb(23.66333%, 79.998779%, 84.867859%)" offset="0.921875"/><stop stop-opacity="1" stop-color="rgb(23.699951%, 79.998779%, 85.105896%)" offset="0.929688"/><stop stop-opacity="1" stop-color="rgb(23.736572%, 79.998779%, 85.342407%)" offset="0.9375"/><stop stop-opacity="1" stop-color="rgb(23.773193%, 79.998779%, 85.580444%)" offset="0.945313"/><stop stop-opacity="1" stop-color="rgb(23.809814%, 79.998779%, 85.818481%)" offset="0.953125"/><stop stop-opacity="1" stop-color="rgb(23.846436%, 79.998779%, 86.056519%)" offset="0.960938"/><stop stop-opacity="1" stop-color="rgb(23.883057%, 79.998779%, 86.294556%)" offset="0.96875"/><stop stop-opacity="1" stop-color="rgb(23.919678%, 79.998779%, 86.532593%)" offset="0.976562"/><stop stop-opacity="1" stop-color="rgb(23.956299%, 79.998779%, 86.769104%)" offset="0.984375"/><stop stop-opacity="1" stop-color="rgb(23.99292%, 79.998779%, 87.007141%)" offset="0.992188"/><stop stop-opacity="1" stop-color="rgb(24.029541%, 79.998779%, 87.245178%)" offset="1"/></linearGradient></defs><g clip-path="url(#id1)"><g clip-path="url(#id2)"><path fill="url(#id3)" d="M 1.027344 6.855469 L 1.027344 199.515625 L 112.773438 199.515625 L 112.773438 6.855469 Z M 1.027344 6.855469 " fill-rule="nonzero"/></g></g><g fill="#34cea1" fill-opacity="1"><g transform="translate(139.029661, 130.714889)"><g><path d="M 16.46875 -22 L 16.46875 0 L 4.328125 0 L 4.328125 -56.0625 L 29.625 -56.0625 L 29.625 -45.578125 L 16.46875 -45.578125 L 16.46875 -32.140625 L 28.765625 -32.140625 L 28.765625 -22 Z M 16.46875 -22 "/></g></g></g><g fill="#34cea1" fill-opacity="1"><g transform="translate(180.872193, 130.714889)"><g><path d="M 16.46875 -10.046875 L 29.890625 -10.046875 L 29.890625 0 L 4.328125 0 L 4.328125 -56.0625 L 29.890625 -56.0625 L 29.890625 -46.171875 L 16.46875 -46.171875 L 16.46875 -33.015625 L 29.03125 -33.015625 L 29.03125 -23.484375 L 16.46875 -23.484375 Z M 16.46875 -10.046875 "/></g></g></g><g fill="#34cea1" fill-opacity="1"><g transform="translate(222.88799, 130.714889)"><g><path d="M 1.125 -45.75 L 1.125 -56.0625 L 31.453125 -56.0625 L 31.453125 -45.75 L 22.359375 -45.75 L 22.359375 0 L 10.21875 0 L 10.21875 -45.75 Z M 1.125 -45.75 "/></g></g></g><g fill="#34cea1" fill-opacity="1"><g transform="translate(264.990406, 130.714889)"><g><path d="M 16.46875 -10.046875 L 29.890625 -10.046875 L 29.890625 0 L 4.328125 0 L 4.328125 -56.0625 L 29.890625 -56.0625 L 29.890625 -46.171875 L 16.46875 -46.171875 L 16.46875 -33.015625 L 29.03125 -33.015625 L 29.03125 -23.484375 L 16.46875 -23.484375 Z M 16.46875 -10.046875 "/></g></g></g><g fill="#34cea1" fill-opacity="1"><g transform="translate(307.006208, 130.714889)"><g><path d="M 39.25 -56.0625 L 29.71875 -30.328125 L 41.0625 0 L 28.671875 0 L 20.359375 -22.1875 L 16.46875 -22.1875 L 16.46875 0 L 4.328125 0 L 4.328125 -56.0625 L 16.46875 -56.0625 L 16.46875 -32.578125 L 19.40625 -32.578125 L 28.15625 -56.0625 Z M 39.25 -56.0625 "/></g></g></g></svg>