<svg width="59" height="58" viewBox="0 0 59 58" fill="none" xmlns="http://www.w3.org/2000/svg">
<path fill-rule="evenodd" clip-rule="evenodd" d="M19.8399 11.4802C20.0834 11.3178 20.4007 11.3178 20.6442 11.4802L38.553 23.4194C38.7547 23.5538 38.8759 23.7802 38.8759 24.0226V43.4238C38.8759 44.0119 38.6423 44.5759 38.2264 44.9917C37.8106 45.4076 37.2466 45.6412 36.6585 45.6412H3.82568C3.23759 45.6412 2.67358 45.4076 2.25774 44.9917C1.84189 44.5759 1.60828 44.0119 1.60828 43.4238V24.0226C1.60828 23.7802 1.72942 23.5538 1.93112 23.4194L19.8399 11.4802ZM3.05828 24.4106V43.4238C3.05828 43.6273 3.13913 43.8225 3.28304 43.9664C3.42696 44.1104 3.62215 44.1912 3.82568 44.1912H36.6585C36.862 44.1912 37.0572 44.1104 37.2011 43.9664C37.345 43.8225 37.4259 43.6273 37.4259 43.4238V24.4106L20.2421 12.9547L3.05828 24.4106Z" fill="#34CB9E"/>
<path fill-rule="evenodd" clip-rule="evenodd" d="M17.5782 34.0509C17.8092 34.378 17.7313 34.8304 17.4043 35.0614L3.21183 45.0864C2.88478 45.3174 2.43239 45.2396 2.20137 44.9125C1.97036 44.5855 2.04821 44.1331 2.37526 43.9021L16.5677 33.877C16.8948 33.646 17.3472 33.7239 17.5782 34.0509Z" fill="#34CB9E"/>
<path fill-rule="evenodd" clip-rule="evenodd" d="M22.906 34.0509C23.137 33.7239 23.5894 33.646 23.9164 33.877L38.1091 43.9022C38.4362 44.1332 38.514 44.5856 38.283 44.9126C38.052 45.2397 37.5996 45.3175 37.2726 45.0865L23.0798 35.0614C22.7528 34.8304 22.675 34.378 22.906 34.0509Z" fill="#34CB9E"/>
<path fill-rule="evenodd" clip-rule="evenodd" d="M1.74301 23.6013C1.97546 23.2753 2.42819 23.1994 2.75422 23.4319L17.2179 33.744H23.2664L37.7301 23.4319C38.0561 23.1994 38.5088 23.2753 38.7413 23.6013C38.9737 23.9273 38.8978 24.3801 38.5718 24.6125L23.9192 35.0593C23.7964 35.1469 23.6493 35.194 23.4984 35.194H16.9859C16.835 35.194 16.6879 35.1469 16.565 35.0593L1.91245 24.6125C1.58642 24.3801 1.51056 23.9273 1.74301 23.6013Z" fill="#34CB9E"/>
</svg>
