<svg width="58" height="58" viewBox="0 0 58 58" fill="none" xmlns="http://www.w3.org/2000/svg">
<path d="M19.988 20.4779C19.8063 20.4779 19.6279 20.4041 19.4994 20.2759C19.371 20.1474 19.297 19.9696 19.297 19.7883C19.297 19.6067 19.371 19.4289 19.4994 19.2999C19.6287 19.1717 19.8063 19.0984 19.988 19.0984C20.1704 19.0984 20.348 19.1717 20.4765 19.2999C20.6058 19.4281 20.6792 19.6062 20.6792 19.7883C20.6792 19.9696 20.6058 20.1474 20.4765 20.2759C20.3488 20.4041 20.1704 20.4779 19.988 20.4779Z" fill="#34CB9E"/>
<path d="M23.2516 20.4779C23.07 20.4779 22.8924 20.4041 22.7634 20.2759C22.6346 20.1468 22.5607 19.9696 22.5607 19.7883C22.5607 19.6062 22.6346 19.4289 22.7634 19.2999C22.8924 19.1717 23.07 19.0984 23.2516 19.0984C23.4344 19.0984 23.6117 19.1717 23.741 19.2999C23.8695 19.4289 23.9437 19.6067 23.9437 19.7883C23.9437 19.9696 23.8697 20.1468 23.741 20.2759C23.6117 20.4041 23.4344 20.4779 23.2516 20.4779Z" fill="#34CB9E"/>
<path d="M26.5163 20.4771C26.3339 20.4771 26.1563 20.4041 26.027 20.2759C25.8985 20.1468 25.8251 19.9696 25.8251 19.7883C25.8251 19.6062 25.8985 19.4289 26.027 19.2999C26.1563 19.1717 26.3339 19.0984 26.5163 19.0984C26.698 19.0984 26.8764 19.1717 27.0048 19.2999C27.1333 19.4289 27.2073 19.6062 27.2073 19.7883C27.2073 19.9696 27.1333 20.1468 27.0048 20.2759C26.8764 20.4041 26.698 20.4771 26.5163 20.4771Z" fill="#34CB9E"/>
<path d="M23.2519 28.1055C21.6611 28.1055 20.125 27.6635 18.7882 26.8241L16.2005 27.6266C15.9555 27.7023 15.6883 27.6366 15.5069 27.4555C15.3255 27.2745 15.2594 27.0078 15.3355 26.7632L16.1398 24.1807C15.2985 22.8464 14.8556 21.3136 14.8556 19.7256C14.8556 15.1049 18.6222 11.3457 23.2519 11.3457C27.8817 11.3457 31.6482 15.1049 31.6482 19.7256C31.6482 24.3463 27.8817 28.1055 23.2519 28.1055ZM18.8948 25.3789C19.033 25.3789 19.1698 25.4203 19.2861 25.5001C20.4562 26.3023 21.8276 26.7263 23.2519 26.7263C27.1197 26.7263 30.266 23.5859 30.266 19.7256C30.266 15.8657 27.1197 12.7252 23.2519 12.7252C19.3841 12.7252 16.2378 15.8657 16.2378 19.7256C16.2378 21.1474 16.6624 22.5161 17.4661 23.6836C17.586 23.8577 17.6192 24.0772 17.5563 24.2787L17.0454 25.9201L18.6896 25.4101C18.7571 25.3891 18.8262 25.3789 18.8948 25.3789Z" fill="#34CB9E"/>
<path d="M29.0759 39.4327L25.6851 36.0485C23.9417 34.3088 21.1052 34.3085 19.3619 36.0485L18.7427 36.6667L10.0123 27.9533L10.6317 27.3353C12.3748 25.5954 12.3748 22.7642 10.6317 21.0242L7.24084 17.6403C6.06323 16.465 4.14715 16.465 2.96954 17.6403C1.05453 19.5513 0 22.0923 0 24.795C0 27.4978 1.05453 30.0386 2.96954 31.9498L14.7384 43.6957C16.7149 45.6683 19.3109 46.6545 21.9071 46.6545C24.5034 46.6545 27.0994 45.6681 29.0759 43.6957C30.2535 42.5204 30.2535 40.608 29.0759 39.4327ZM28.0986 42.7202C26.4448 44.3707 24.2459 45.2799 21.9071 45.2799C19.5684 45.2799 17.3694 44.3707 15.7157 42.7202L3.94687 30.9741C2.29287 29.3236 1.3822 27.1292 1.3822 24.795C1.3822 22.4606 2.29287 20.2662 3.9466 18.6157C4.26591 18.2968 4.68535 18.1376 5.10505 18.1376C5.52449 18.1376 5.9442 18.297 6.2635 18.6157L9.65409 21.9999C10.8587 23.2019 10.8587 25.1579 9.65409 26.3599L8.92561 27.0869C8.69376 27.3183 8.56609 27.626 8.56609 27.9533C8.56609 28.2808 8.69376 28.5885 8.92561 28.8199V28.8196L17.8744 37.7512L20.7419 40.6131C20.8769 40.7478 21.0537 40.8152 21.2307 40.8152C21.4075 40.8152 21.5843 40.7478 21.7193 40.6131C21.9892 40.3437 21.9892 39.9071 21.7193 39.6377L19.7198 37.6421L20.339 37.0239C20.9225 36.4418 21.6982 36.1209 22.5233 36.1209C23.3485 36.1209 24.1242 36.4415 24.7077 37.0239L28.0983 40.4081C28.4079 40.7168 28.5782 41.1274 28.5782 41.564C28.5785 42.001 28.4079 42.4115 28.0986 42.7202Z" fill="#34CB9E"/>
</svg>
