<svg width="59" height="58" viewBox="0 0 59 58" fill="none" xmlns="http://www.w3.org/2000/svg">
<g clip-path="url(#clip0_163_501)">
<g clip-path="url(#clip1_163_501)">
<path d="M23.5496 23.0044L23.161 14.0594C24.8339 13.7745 25.9997 12.6271 26.0552 12.5704C26.1896 12.4372 26.266 12.2546 26.266 12.0646V10.2735C26.266 9.51845 25.6653 9.11011 25.1015 9.11011H14.359C13.7953 9.11011 13.1957 9.51845 13.1957 10.2735V12.0646C13.1957 12.2546 13.2697 12.4372 13.4054 12.5704C13.4596 12.6271 14.6266 13.7744 16.2995 14.0594L15.9097 23.0044C14.6562 23.1474 11.8523 23.9864 11.8523 28.626V29.0738C11.8523 29.4697 12.1731 29.7905 12.569 29.7905H19.0134V45.6341C19.0134 46.03 19.3342 46.3508 19.7302 46.3508C20.1262 46.3508 20.447 46.03 20.447 45.6341V29.7905H26.8914C27.2873 29.7905 27.6081 29.4697 27.6081 29.0738V28.626C27.6081 23.9876 24.8041 23.1474 23.5496 23.0044ZM13.2883 28.3582C13.3315 26.7668 13.7707 25.6381 14.5947 24.998C15.4594 24.3245 16.4747 24.4108 16.5179 24.4132C16.7154 24.4367 16.9115 24.3762 17.062 24.2455C17.2138 24.1172 17.3039 23.9322 17.3125 23.7323L17.7602 13.439C17.7688 13.244 17.6973 13.0541 17.5629 12.9123C17.4271 12.7704 17.2397 12.6915 17.0448 12.6915C15.9492 12.6915 15.0265 12.0599 14.6269 11.7391V10.5425H24.8327V11.7391C24.4341 12.0599 23.5065 12.6915 22.416 12.6915C22.2211 12.6915 22.0336 12.7704 21.8993 12.9123C21.7634 13.0542 21.692 13.2442 21.7007 13.439L22.1485 23.7323C22.157 23.9298 22.2483 24.1136 22.3965 24.2431C22.5457 24.3714 22.7456 24.433 22.9381 24.4145C22.9516 24.4133 23.0047 24.4084 23.0873 24.4084C23.9928 24.4084 26.0727 24.8006 26.1714 28.3584H13.2883V28.3582Z" fill="#34CB9E"/>
</g>
</g>
<defs>
<clipPath id="clip0_163_501">
<rect width="58" height="58" fill="white" transform="translate(0.666504)"/>
</clipPath>
<clipPath id="clip1_163_501">
<rect width="38" height="38" fill="white" transform="translate(0.72998 8.72998)"/>
</clipPath>
</defs>
</svg>
